<!DOCTYPE svg PUBLIC "-//W3C//DTD SVG 1.1//EN" "http://www.w3.org/Graphics/SVG/1.1/DTD/svg11.dtd">
<!-- Uploaded to: SVG Repo, www.svgrepo.com, Transformed by: SVG Repo Mixer Tools -->
<svg width="800px" height="800px" viewBox="-0.5 0 25 25" fill="none" xmlns="http://www.w3.org/2000/svg" transform="matrix(1, 0, 0, -1, 0, 0)">
<g id="SVGRepo_bgCarrier" stroke-width="0"/>
<g id="SVGRepo_tracerCarrier" stroke-linecap="round" stroke-linejoin="round"/>
<g id="SVGRepo_iconCarrier"> <path d="M14.07 14.16C16.35 13.35 17.98 11.24 17.98 8.75999C17.98 6.27999 16.35 4.17 14.07 3.36C13.43 3.12 12.73 3 12 3C11.27 3 10.57 3.12 9.93002 3.36C7.65002 4.17 6.02002 6.27999 6.02002 8.75999C6.02002 11.24 7.65002 13.35 9.93002 14.16" stroke="#ffea00" stroke-miterlimit="10" stroke-linecap="round" stroke-linejoin="round"/> <path d="M15.11 15.8V17.37C15.11 17.65 14.89 17.87 14.61 17.87H9.39001C9.11001 17.87 8.89001 17.65 8.89001 17.37V15.8" stroke="#ffea00" stroke-miterlimit="10" stroke-linecap="round" stroke-linejoin="round"/> <path d="M13.0399 19.93V20.96C13.0399 21.53 12.5799 22 11.9999 22C11.4299 22 10.96 21.54 10.96 20.96V19.93" stroke="#ffea00" stroke-miterlimit="10" stroke-linecap="round" stroke-linejoin="round"/> <path d="M12 15.8V13.03C12 12.95 12.02 12.88 12.05 12.81L13.83 9.14999" stroke="#ffea00" stroke-miterlimit="10" stroke-linecap="round" stroke-linejoin="round"/> <path d="M11.0999 11.06L10.1899 9.17" stroke="#ffea00" stroke-miterlimit="10" stroke-linecap="round" stroke-linejoin="round"/> </g>
</svg>